<svg width="100" height="100" viewBox="0 0 100 100" fill="none" xmlns="http://www.w3.org/2000/svg">
<circle cx="50" cy="50" r="50" fill="#229ED9"/>
<path d="M63.75 41.25V35.75C63.75 32.1033 62.3013 28.6059 59.7227 26.0273C57.1441 23.4487 53.6467 22 50 22C46.3533 22 42.8559 23.4487 40.2773 26.0273C37.6987 28.6059 36.25 32.1033 36.25 35.75V41.25C34.062 41.25 31.9635 42.1192 30.4164 43.6664C28.8692 45.2135 28 47.312 28 49.5V68.75C28 70.938 28.8692 73.0365 30.4164 74.5836C31.9635 76.1308 34.062 77 36.25 77H63.75C65.938 77 68.0365 76.1308 69.5836 74.5836C71.1308 73.0365 72 70.938 72 68.75V49.5C72 47.312 71.1308 45.2135 69.5836 43.6664C68.0365 42.1192 65.938 41.25 63.75 41.25ZM41.75 35.75C41.75 33.562 42.6192 31.4635 44.1664 29.9164C45.7135 28.3692 47.812 27.5 50 27.5C52.188 27.5 54.2865 28.3692 55.8336 29.9164C57.3808 31.4635 58.25 33.562 58.25 35.75V41.25H41.75V35.75ZM66.5 68.75C66.5 69.4793 66.2103 70.1788 65.6945 70.6945C65.1788 71.2103 64.4793 71.5 63.75 71.5H36.25C35.5207 71.5 34.8212 71.2103 34.3055 70.6945C33.7897 70.1788 33.5 69.4793 33.5 68.75V49.5C33.5 48.7707 33.7897 48.0712 34.3055 47.5555C34.8212 47.0397 35.5207 46.75 36.25 46.75H63.75C64.4793 46.75 65.1788 47.0397 65.6945 47.5555C66.2103 48.0712 66.5 48.7707 66.5 49.5V68.75Z" fill="white"/>
</svg>
