<svg width="100" height="100" viewBox="0 0 100 100" fill="none" xmlns="http://www.w3.org/2000/svg">
<circle cx="50" cy="50" r="50" fill="#229ED9"/>
<path d="M68.5017 33.5009C65.8273 30.8058 62.5809 28.7451 59.0022 27.471C55.4235 26.1968 51.604 25.7418 47.8256 26.1396C36.1155 27.3187 26.4794 36.8152 25.1712 48.5105C23.4163 63.9662 35.3817 77 50.4739 77C55.2923 77 60.0118 75.6345 64.0841 73.0623C68.1564 70.49 71.4143 66.8164 73.4793 62.4684C74.5003 60.3333 72.9688 57.8795 70.6076 57.8795C69.427 57.8795 68.3103 58.5169 67.7998 59.5685C65.9472 63.5488 62.7787 66.7705 58.8271 68.6916C54.8755 70.6126 50.3821 71.1159 46.1026 70.1166C39.0191 68.5551 33.3077 62.7871 31.808 55.7126C31.1776 52.9154 31.1849 50.0125 31.8294 47.2186C32.4738 44.4247 33.7389 41.8112 35.5311 39.5714C37.3233 37.3317 39.5968 35.523 42.1833 34.2792C44.7698 33.0354 47.6032 32.3882 50.4739 32.3856C55.7706 32.3856 60.4929 34.5844 63.9389 38.058L59.1209 42.87C57.1107 44.8776 58.5146 48.3193 61.3544 48.3193H72.8092C74.5642 48.3193 76 46.8853 76 45.1326V33.6921C76 30.8559 72.554 29.4219 70.5438 31.4296L68.5017 33.5009Z" fill="white"/>
</svg>
