<svg width="100" height="100" viewBox="0 0 100 100" fill="none" xmlns="http://www.w3.org/2000/svg">
<circle cx="50" cy="50" r="50" fill="#229ED9"/>
<path d="M73.9062 33.9687H64.177C64.2852 33.8772 64.3961 33.7885 64.5015 33.6914C65.3438 32.9431 66.0227 32.029 66.4956 31.0063C66.9685 29.9836 67.2253 28.8744 67.25 27.7479C67.2864 26.5156 67.0706 25.2889 66.6158 24.143C66.161 22.9971 65.4767 21.9563 64.6051 21.0844C63.7335 20.2125 62.6929 19.5279 61.5471 19.0728C60.4014 18.6176 59.1747 18.4014 57.9423 18.4375C56.8154 18.4618 55.7056 18.7184 54.6825 19.1913C53.6593 19.6643 52.7447 20.3433 51.9961 21.186C50.9602 22.3866 50.118 23.7415 49.5 25.2019C48.882 23.7415 48.0398 22.3866 47.0039 21.186C46.2553 20.3433 45.3407 19.6643 44.3175 19.1913C43.2944 18.7184 42.1846 18.4618 41.0577 18.4375C39.8253 18.4014 38.5986 18.6176 37.4529 19.0728C36.3071 19.5279 35.2665 20.2125 34.3949 21.0844C33.5233 21.9563 32.839 22.9971 32.3842 24.143C31.9294 25.2889 31.7136 26.5156 31.75 27.7479C31.7747 28.8744 32.0315 29.9836 32.5044 31.0063C32.9773 32.029 33.6562 32.9431 34.4985 33.6914C34.6039 33.7829 34.7148 33.8717 34.823 33.9687H25.0938C23.9169 33.9687 22.7882 34.4363 21.956 35.2685C21.1238 36.1007 20.6562 37.2293 20.6562 38.4062V47.2812C20.6562 48.4581 21.1238 49.5868 21.956 50.419C22.7882 51.2512 23.9169 51.7187 25.0938 51.7187V69.4687C25.0938 70.6456 25.5613 71.7743 26.3935 72.6065C27.2257 73.4387 28.3544 73.9062 29.5312 73.9062H69.4688C70.6456 73.9062 71.7743 73.4387 72.6065 72.6065C73.4387 71.7743 73.9062 70.6456 73.9062 69.4687V51.7187C75.0831 51.7187 76.2118 51.2512 77.044 50.419C77.8762 49.5868 78.3438 48.4581 78.3438 47.2812V38.4062C78.3438 37.2293 77.8762 36.1007 77.044 35.2685C76.2118 34.4363 75.0831 33.9687 73.9062 33.9687ZM55.3242 24.1258C55.6755 23.7379 56.1032 23.4267 56.5805 23.212C57.0578 22.9972 57.5743 22.8834 58.0977 22.8778H58.2336C58.847 22.8816 59.4534 23.0078 60.0174 23.2491C60.5814 23.4903 61.0916 23.8416 61.518 24.2826C61.9445 24.7235 62.2786 25.2451 62.5009 25.8168C62.7232 26.3885 62.8291 26.9988 62.8125 27.612C62.8069 28.1354 62.6931 28.6519 62.4783 29.1292C62.2635 29.6064 61.9524 30.0342 61.5645 30.3855C58.9325 32.7152 54.5643 33.5361 51.8574 33.8245C52.1902 30.8875 53.1055 26.6191 55.3242 24.1258ZM37.5493 24.2257C38.4089 23.3661 39.573 22.8807 40.7886 22.875H40.9245C41.4479 22.8806 41.9644 22.9944 42.4417 23.2092C42.9189 23.424 43.3467 23.7351 43.698 24.123C46.0249 26.7523 46.8458 31.1121 47.1343 33.8079C44.4385 33.5305 40.0786 32.6985 37.4494 30.3716C37.0615 30.0203 36.7503 29.5926 36.5356 29.1153C36.3208 28.638 36.207 28.1215 36.2014 27.5982C36.1842 26.9748 36.2938 26.3544 36.5236 25.7747C36.7534 25.195 37.0986 24.668 37.5382 24.2257H37.5493ZM25.0938 38.4062H47.2812V47.2812H25.0938V38.4062ZM29.5312 51.7187H47.2812V69.4687H29.5312V51.7187ZM69.4688 69.4687H51.7188V51.7187H69.4688V69.4687ZM73.9062 47.2812H51.7188V38.4062H73.9062V47.2812Z" fill="white"/>
</svg>
