<svg width="100" height="100" viewBox="0 0 100 100" fill="none" xmlns="http://www.w3.org/2000/svg">
<g clip-path="url(#clip0_6_2)">
<path d="M45 75H55V45H45V75ZM50 35C51.4167 35 52.605 34.52 53.565 33.56C54.525 32.6 55.0033 31.4133 55 30C55 28.5833 54.52 27.395 53.56 26.435C52.6 25.475 51.4133 24.9967 50 25C48.5833 25 47.395 25.48 46.435 26.44C45.475 27.4 44.9967 28.5867 45 30C45 31.4167 45.48 32.605 46.44 33.565C47.4 34.525 48.5867 35.0033 50 35ZM50 100C43.0833 100 36.5833 98.6867 30.5 96.06C24.4167 93.4333 19.125 89.8717 14.625 85.375C10.125 80.875 6.56333 75.5833 3.94 69.5C1.31667 63.4167 0.00333333 56.9167 0 50C0 43.0833 1.31333 36.5833 3.94 30.5C6.56667 24.4167 10.1283 19.125 14.625 14.625C19.125 10.125 24.4167 6.56333 30.5 3.94C36.5833 1.31667 43.0833 0.00333333 50 0C56.9167 0 63.4167 1.31333 69.5 3.94C75.5833 6.56667 80.875 10.1283 85.375 14.625C89.875 19.125 93.4383 24.4167 96.065 30.5C98.6917 36.5833 100.003 43.0833 100 50C100 56.9167 98.6867 63.4167 96.06 69.5C93.4333 75.5833 89.8717 80.875 85.375 85.375C80.875 89.875 75.5833 93.4383 69.5 96.065C63.4167 98.6917 56.9167 100.003 50 100Z" fill="white"/>
</g>
<defs>
<clipPath id="clip0_6_2">
<rect width="100" height="100" fill="white"/>
</clipPath>
</defs>
</svg>
