<svg width="100" height="100" viewBox="0 0 100 100" fill="none" xmlns="http://www.w3.org/2000/svg">
<circle cx="50" cy="50" r="50" fill="#229ED9"/>
<path d="M47.8787 75.1213C49.0503 76.2929 50.9498 76.2929 52.1214 75.1213L71.2132 56.0294C72.3848 54.8579 72.3848 52.9584 71.2132 51.7868C70.0417 50.6152 68.1422 50.6152 66.9706 51.7868L50 68.7574L33.0295 51.7868C31.8579 50.6152 29.9584 50.6152 28.7868 51.7868C27.6153 52.9584 27.6153 54.8579 28.7868 56.0294L47.8787 75.1213ZM53 26C53 24.3431 51.6569 23 50 23C48.3432 23 47 24.3431 47 26L53 26ZM53 73L53 26L47 26L47 73L53 73Z" fill="white"/>
</svg>
