<svg width="100" height="100" viewBox="0 0 100 100" fill="none" xmlns="http://www.w3.org/2000/svg">
<circle cx="50" cy="50" r="50" fill="#229ED9"/>
<path d="M74.5 46.375C73.7358 40.8757 71.1846 35.7802 67.2395 31.8734C63.2944 27.9667 58.1742 25.4654 52.6677 24.7548C47.1612 24.0443 41.5738 25.164 36.7663 27.9414C31.9587 30.7188 28.1977 34.9998 26.0625 40.125M24.5 27.625V40.125H37M24.5 52.625C25.2642 58.1243 27.8154 63.2198 31.7605 67.1266C35.7056 71.0333 40.8258 73.5346 46.3323 74.2451C51.8388 74.9557 57.4262 73.836 62.2337 71.0586C67.0413 68.2812 70.8023 64.0002 72.9375 58.875M74.5 71.375V58.875H62" stroke="white" stroke-width="6" stroke-linecap="round" stroke-linejoin="round"/>
</svg>
