<svg width="100" height="100" viewBox="0 0 100 100" fill="none" xmlns="http://www.w3.org/2000/svg">
<circle cx="50" cy="50" r="50" fill="#229ED9"/>
<path d="M51 41.3C53.17 41.3 55.251 42.1639 56.7854 43.7017C58.3198 45.2395 59.1818 47.3252 59.1818 49.5C59.1818 51.6748 58.3198 53.7605 56.7854 55.2983C55.251 56.8361 53.17 57.7 51 57.7C48.83 57.7 46.749 56.8361 45.2146 55.2983C43.6802 53.7605 42.8182 51.6748 42.8182 49.5C42.8182 47.3252 43.6802 45.2395 45.2146 43.7017C46.749 42.1639 48.83 41.3 51 41.3ZM51 29C64.6364 29 76.2818 37.5007 81 49.5C76.2818 61.4993 64.6364 70 51 70C37.3636 70 25.7182 61.4993 21 49.5C25.7182 37.5007 37.3636 29 51 29ZM26.9455 49.5C29.1498 54.0108 32.5727 57.8114 36.8249 60.4696C41.0772 63.1277 45.9884 64.5369 51 64.5369C56.0116 64.5369 60.9228 63.1277 65.1751 60.4696C69.4273 57.8114 72.8502 54.0108 75.0545 49.5C72.8502 44.9892 69.4273 41.1886 65.1751 38.5304C60.9228 35.8723 56.0116 34.4631 51 34.4631C45.9884 34.4631 41.0772 35.8723 36.8249 38.5304C32.5727 41.1886 29.1498 44.9892 26.9455 49.5Z" fill="white"/>
</svg>
