<svg width="100" height="100" viewBox="0 0 100 100" fill="none" xmlns="http://www.w3.org/2000/svg">
<circle cx="50" cy="50" r="50" fill="#229ED9"/>
<path d="M47 73C47 74.6569 48.3432 76 50 76C51.6569 76 53 74.6569 53 73L47 73ZM52.1214 23.8787C50.9498 22.7071 49.0503 22.7071 47.8787 23.8787L28.7868 42.9706C27.6153 44.1421 27.6153 46.0416 28.7868 47.2132C29.9584 48.3848 31.8579 48.3848 33.0295 47.2132L50 30.2426L66.9706 47.2132C68.1422 48.3848 70.0417 48.3848 71.2132 47.2132C72.3848 46.0416 72.3848 44.1421 71.2132 42.9706L52.1214 23.8787ZM53 73L53 26L47 26L47 73L53 73Z" fill="white"/>
</svg>
