<svg width="106" height="106" viewBox="0 0 106 106" fill="none" xmlns="http://www.w3.org/2000/svg">
<path d="M63 9.345C63 5.84 60.16 3 56.655 3H49.35C45.84 3 43 5.84 43 9.345C43 12.235 41.02 14.715 38.325 15.775C37.9 15.945 37.475 16.125 37.06 16.305C34.405 17.455 31.25 17.105 29.2 15.06C28.0102 13.8711 26.397 13.2032 24.715 13.2032C23.033 13.2032 21.4198 13.8711 20.23 15.06L15.06 20.23C13.8711 21.4198 13.2032 23.033 13.2032 24.715C13.2032 26.397 13.8711 28.0102 15.06 29.2C17.11 31.25 17.46 34.4 16.3 37.06C16.1177 37.4786 15.9427 37.9003 15.775 38.325C14.715 41.02 12.235 43 9.345 43C5.84 43 3 45.84 3 49.345V56.655C3 60.16 5.84 63 9.345 63C12.235 63 14.715 64.98 15.775 67.675C15.945 68.1 16.125 68.525 16.3 68.94C17.455 71.595 17.105 74.75 15.06 76.8C13.8711 77.9898 13.2032 79.603 13.2032 81.285C13.2032 82.967 13.8711 84.5802 15.06 85.77L20.23 90.94C21.4198 92.1289 23.033 92.7968 24.715 92.7968C26.397 92.7968 28.0102 92.1289 29.2 90.94C31.25 88.89 34.4 88.54 37.06 89.695C37.475 89.88 37.9 90.055 38.325 90.225C41.02 91.285 43 93.765 43 96.655C43 100.16 45.84 103 49.345 103H56.655C60.16 103 63 100.16 63 96.655C63 93.765 64.98 91.285 67.675 90.22C68.1 90.055 68.525 89.88 68.94 89.7C71.595 88.54 74.75 88.895 76.795 90.94C77.3842 91.5295 78.0838 91.9971 78.8538 92.3161C79.6238 92.6351 80.449 92.7993 81.2825 92.7993C82.116 92.7993 82.9412 92.6351 83.7112 92.3161C84.4812 91.9971 85.1808 91.5295 85.77 90.94L90.94 85.77C92.1289 84.5802 92.7968 82.967 92.7968 81.285C92.7968 79.603 92.1289 77.9898 90.94 76.8C88.89 74.75 88.54 71.6 89.695 68.94C89.88 68.525 90.055 68.1 90.225 67.675C91.285 64.98 93.765 63 96.655 63C100.16 63 103 60.16 103 56.655V49.35C103 45.845 100.16 43.005 96.655 43.005C93.765 43.005 91.285 41.025 90.22 38.33C90.0525 37.9053 89.8774 37.4835 89.695 37.065C88.545 34.41 88.895 31.255 90.94 29.205C92.1289 28.0152 92.7968 26.402 92.7968 24.72C92.7968 23.038 92.1289 21.4248 90.94 20.235L85.77 15.065C84.5802 13.8761 82.967 13.2082 81.285 13.2082C79.603 13.2082 77.9898 13.8761 76.8 15.065C74.75 17.115 71.6 17.465 68.94 16.31C68.5214 16.126 68.0997 15.9493 67.675 15.78C64.98 14.715 63 12.23 63 9.345Z" stroke="white" stroke-width="6"/>
<path d="M73 53C73 58.3043 70.8929 63.3914 67.1421 67.1421C63.3914 70.8929 58.3043 73 53 73C47.6957 73 42.6086 70.8929 38.8579 67.1421C35.1071 63.3914 33 58.3043 33 53C33 47.6957 35.1071 42.6086 38.8579 38.8579C42.6086 35.1071 47.6957 33 53 33C58.3043 33 63.3914 35.1071 67.1421 38.8579C70.8929 42.6086 73 47.6957 73 53Z" stroke="white" stroke-width="6"/>
</svg>
